<?xml version="1.0" encoding="UTF-8"?>
<svg version="1.1" xmlns="http://www.w3.org/2000/svg" width="512" height="512">
<path d="M0 0 C15.18 0 30.36 0 46 0 C47.98 5.94 49.96 11.88 52 18 C55.97568783 20.42958701 57.71406246 21.05137916 62 22 C64.48552658 23.00387359 66.92914495 24.03469444 69.375 25.125 C70.53773438 25.62257813 71.70046875 26.12015625 72.8984375 26.6328125 C76 28 76 28 77.9140625 29.42578125 C81.66404249 30.45807911 84.76907087 27.8916039 88 26.0625 C89.41058297 25.27160248 90.82710335 24.49117972 92.25 23.72265625 C93.18585938 23.19297241 93.18585938 23.19297241 94.140625 22.65258789 C96.53754637 21.81133647 97.61336952 22.1859521 100 23 C101.58869934 24.18756104 101.58869934 24.18756104 103.13208008 25.69628906 C103.71560745 26.26067688 104.29913483 26.8250647 104.90034485 27.40655518 C105.51717636 28.02004822 106.13400787 28.63354126 106.76953125 29.265625 C107.40992844 29.89603699 108.05032562 30.52644897 108.71012878 31.17596436 C110.05964138 32.51030231 111.40512058 33.84873015 112.74682617 35.19091797 C114.80685784 37.24437585 116.88966991 39.27265681 118.97460938 41.30078125 C120.28271601 42.60008822 121.58940646 43.90082285 122.89453125 45.203125 C123.52148392 45.80852112 124.14843658 46.41391724 124.79438782 47.03765869 C129.00198258 51.31365416 129.00198258 51.31365416 128.9921875 54.70458984 C127.26933841 58.69037408 125.24345653 62.52942055 123.08789062 66.296875 C121.90550878 68.45196205 121.90550878 68.45196205 121 72 C121.71959368 73.94863121 121.71959368 73.94863121 122.9309082 75.73681641 C123.6137085 76.81366699 124.29650879 77.89051758 125 79 C126.80009836 79.00081715 126.80009836 79.00081715 128.63656235 79.00165081 C157.15779131 79.0157111 185.67890786 79.05553453 214.20004956 79.12685562 C217.71458337 79.13562181 221.22911768 79.14417172 224.74365234 79.15258789 C225.44329909 79.15426695 226.14294584 79.15594602 226.863794 79.15767596 C238.17534929 79.18430711 249.4868539 79.19343825 260.79843733 79.19604143 C272.41509603 79.19910664 284.03159978 79.22148893 295.6481936 79.26052457 C302.16893201 79.28182931 308.68942395 79.29446793 315.21019745 79.28615379 C321.35311787 79.27859801 327.49553951 79.29449959 333.63836861 79.32806015 C335.88766829 79.33627485 338.13701773 79.33606542 340.38631248 79.32659721 C356.25988161 79.26641703 369.08052186 80.22270251 381 92 C383.36817907 94.84499364 385.30883004 97.7081734 387 101 C387.49336098 101.88795006 387.49336098 101.88795006 387.99668884 102.7938385 C392.17491147 111.44543321 391.50541997 120.32146151 391.390625 129.6953125 C391.38315235 131.49705371 391.37746427 133.29880313 391.37347412 135.10055542 C391.35829827 139.81232669 391.31908719 144.52359435 391.2746582 149.23516846 C391.22628274 154.90455724 391.20813309 160.57411566 391.18484497 166.24365234 C391.14623018 174.8294504 391.06952108 183.41414634 391 192 C369.88 192 348.76 192 327 192 C327 197.28 327 202.56 327 208 C348.12 208 369.24 208 391 208 C391 271.36 391 334.72 391 400 C369.88 400 348.76 400 327 400 C327.19729924 420.85140511 327.19729924 420.85140511 327.45043945 441.70214844 C327.46505782 444.33788027 327.47779529 446.97362349 327.48828125 449.609375 C327.50134811 450.27712952 327.51441498 450.94488403 327.52787781 451.63287354 C327.76103139 464.19745907 325.10950273 474.27930884 316.94140625 484.03515625 C308.24741563 492.83410451 297.65998513 496.43178575 285.49984944 496.53963572 C284.14622919 496.53168123 282.79261115 496.52334369 281.43899536 496.5146637 C279.97873068 496.51999652 278.51847149 496.52706643 277.05822265 496.53571075 C273.06770715 496.55426785 269.07756453 496.54805723 265.08703399 496.53755772 C260.77470569 496.53054587 256.46245246 496.54657873 252.15014648 496.55955505 C243.71053229 496.58116759 235.27105308 496.58107513 226.83142032 496.57292951 C219.96962012 496.56662252 213.10785921 496.56777296 206.24605942 496.57420158 C204.77957196 496.57555407 204.77957196 496.57555407 203.28345849 496.57693387 C201.2971646 496.57878513 199.31087071 496.58064769 197.32457684 496.58252143 C178.70910073 496.59909054 160.09370046 496.59038848 141.47822891 496.57353585 C124.46054083 496.55884196 107.44302937 496.57346451 90.42536403 496.60230602 C72.93689833 496.6317239 55.44851407 496.64266517 37.96002471 496.63312382 C35.98054053 496.6321013 34.00105633 496.63110669 32.02157211 496.6301403 C30.56078719 496.62942572 30.56078719 496.62942572 29.07049147 496.6286967 C22.22111772 496.62653561 15.37182135 496.63632048 8.52246475 496.65091133 C0.16915806 496.66845822 -8.18392359 496.66828361 -16.53722154 496.64555968 C-20.79602586 496.63443848 -25.05443404 496.63120649 -29.31322098 496.64986038 C-33.21810442 496.66674351 -37.12224861 496.66020951 -41.02708484 496.63564359 C-42.43344725 496.63078539 -43.83987018 496.63420707 -45.24618159 496.64713103 C-57.50754925 496.75160798 -67.52506827 493.90374031 -77.03515625 485.94140625 C-84.07353737 478.98698196 -89.09748307 469.32613642 -89.45410156 459.36669922 C-89.45311845 457.34591811 -89.43168865 455.32505159 -89.390625 453.3046875 C-89.38659668 452.35150635 -89.38256836 451.3983252 -89.37841797 450.41625977 C-89.3577065 446.90230682 -89.30186341 443.38863124 -89.25 439.875 C-89.1675 431.99625 -89.085 424.1175 -89 416 C-57.32 416 -25.64 416 7 416 C7.11340062 387.19320707 7.11340062 387.19320707 7.1328125 358.38671875 C7.11987791 346.63238954 7.11710554 334.8787051 7.18164062 323.12451172 C7.22860264 314.56232109 7.24009627 306.00092226 7.2099179 297.43864357 C7.19516828 292.9093106 7.19755474 288.38151879 7.24249649 283.85235214 C7.28434257 279.57847898 7.27833084 275.30720149 7.23747826 271.03334427 C7.23067737 269.47502269 7.24054058 267.91651282 7.26943016 266.35844421 C7.4773702 254.34466566 4.28568167 246.80450703 -4 238 C-6.7545519 236.12224884 -9.06927498 235.19274267 -12.3125 234.5 C-13.79898042 234.09886805 -15.28337005 233.68991215 -16.765625 233.2734375 C-17.48556641 233.0784668 -18.20550781 232.88349609 -18.94726562 232.68261719 C-22.08906017 231.63784345 -24.74543878 229.84186567 -27.5625 228.125 C-30.62441454 226.60564089 -32.66816284 225.64638961 -36.046875 226.54345703 C-39.76814759 228.08199577 -43.14592697 230.02526938 -46.56640625 232.13671875 C-50 234 -50 234 -52.0188446 233.78497314 C-54.22561113 232.91060838 -55.43899301 231.95878402 -57.13208008 230.30371094 C-57.71560745 229.73932312 -58.29913483 229.1749353 -58.90034485 228.59344482 C-59.51717636 227.97995178 -60.13400787 227.36645874 -60.76953125 226.734375 C-61.73012703 225.78875702 -61.73012703 225.78875702 -62.71012878 224.82403564 C-64.05964138 223.48969769 -65.40512058 222.15126985 -66.74682617 220.80908203 C-68.80685784 218.75562415 -70.88966991 216.72734319 -72.97460938 214.69921875 C-74.28271601 213.39991178 -75.58940646 212.09917715 -76.89453125 210.796875 C-77.83496025 209.88878082 -77.83496025 209.88878082 -78.79438782 208.96234131 C-83.00030879 204.68804684 -83.00030879 204.68804684 -82.9987793 201.2800293 C-81.8747025 198.71396888 -80.49480521 196.34541879 -79.06567383 193.9387207 C-76.35077353 189.15887905 -74.52640948 185.81704119 -75.95703125 180.328125 C-77.23249528 177.91145631 -78.50979462 175.66401824 -79.96875 173.37109375 C-82.00541826 169.99100778 -82.88907702 167.18411978 -83.8125 163.375 C-85.08071825 159.28513399 -85.08071825 159.28513399 -88.1484375 156.47265625 C-90.75340514 155.41063098 -93.2736822 154.69522924 -96 154 C-98.97 153.01 -101.94 152.02 -105 151 C-105 135.82 -105 120.64 -105 105 C-99.06 103.02 -93.12 101.04 -87 99 C-84.57041299 95.02431217 -83.94862084 93.28593754 -83 89 C-81.99612641 86.51447342 -80.96530556 84.07085505 -79.875 81.625 C-79.12863281 79.88089844 -79.12863281 79.88089844 -78.3671875 78.1015625 C-77 75 -77 75 -75.57421875 73.0859375 C-74.54192089 69.33595751 -77.1083961 66.23092913 -78.9375 63 C-79.72839752 61.58941703 -80.50882028 60.17289665 -81.27734375 58.75 C-81.63046631 58.12609375 -81.98358887 57.5021875 -82.34741211 56.859375 C-83.18866353 54.46245363 -82.8140479 53.38663048 -82 51 C-80.81243896 49.41130066 -80.81243896 49.41130066 -79.30371094 47.86791992 C-78.73932312 47.28439255 -78.1749353 46.70086517 -77.59344482 46.09965515 C-76.97995178 45.48282364 -76.36645874 44.86599213 -75.734375 44.23046875 C-75.10396301 43.59007156 -74.47355103 42.94967438 -73.82403564 42.28987122 C-72.48969769 40.94035862 -71.15126985 39.59487942 -69.80908203 38.25317383 C-67.75562415 36.19314216 -65.72734319 34.11033009 -63.69921875 32.02539062 C-62.39991178 30.71728399 -61.09917715 29.41059354 -59.796875 28.10546875 C-59.19147888 27.47851608 -58.58608276 26.85156342 -57.96234131 26.20561218 C-53.68804684 21.99969121 -53.68804684 21.99969121 -50.2800293 22.0012207 C-47.71396888 23.1252975 -45.34541879 24.50519479 -42.9387207 25.93432617 C-38.15887905 28.64922647 -34.81704119 30.47359052 -29.328125 29.04296875 C-26.91145631 27.76750472 -24.66401824 26.49020538 -22.37109375 25.03125 C-18.99100778 22.99458174 -16.18411978 22.11092298 -12.375 21.1875 C-8.28513399 19.91928175 -8.28513399 19.91928175 -5.47265625 16.8515625 C-4.41063098 14.24659486 -3.69522924 11.7263178 -3 9 C-2.01 6.03 -1.02 3.06 0 0 Z M30 103 C22.7579321 111.41844441 22.70457631 121.71024233 22.75949097 132.31959534 C22.75778212 133.53601666 22.75607327 134.75243798 22.75431263 136.00572056 C22.75159961 139.36034053 22.75780551 142.71472428 22.76786876 146.06931555 C22.77653987 149.69495789 22.77358052 153.32059349 22.77206421 156.94624329 C22.77101767 163.22070083 22.7772701 169.49511663 22.78853989 175.76956367 C22.80482326 184.84125265 22.81000579 193.91292154 22.81251587 202.98462354 C22.81688852 217.70436006 22.83018596 232.42407437 22.84912109 247.14379883 C22.86749102 261.43904511 22.88161913 275.73428533 22.89013672 290.02954102 C22.89067271 290.92030993 22.89120871 291.81107885 22.89176095 292.72884077 C22.89592001 299.69567781 22.89983378 306.66251499 22.90367007 313.62935221 C22.92252297 347.75292187 22.96276301 381.87643588 23 416 C102.2 416 181.4 416 263 416 C263 429.2 263 442.4 263 456 C265.63754708 467.95321052 265.63754708 467.95321052 274.125 475.9375 C280.25918113 479.45809034 286.04289345 479.63567471 293 479 C299.03588636 477.18528907 303.84451316 473.51723022 307.15625 468.11328125 C317.51531646 448.69003164 311 415.21157471 311 400 C252.92 400 194.84 400 135 400 C135 336.64 135 273.28 135 208 C193.08 208 251.16 208 311 208 C311.13084023 176.6177469 311.13084023 176.6177469 311.20776367 145.23535156 C311.24865723 139.13232422 311.24865723 139.13232422 311.27412415 136.26507568 C311.28710658 134.28480832 311.29048796 132.30446247 311.28596497 130.32415771 C311.2669535 118.74714583 311.33362564 109.35009589 317 99 C317.33 98.01 317.66 97.02 318 96 C283.62940322 95.95420709 249.25881342 95.91897293 214.88819272 95.89786934 C210.82902621 95.89536797 206.76985977 95.89277932 202.71069336 95.89013672 C201.90259755 95.8896121 201.09450174 95.88908748 200.26191818 95.88854696 C187.18297264 95.87984796 174.1040447 95.86408076 161.0251096 95.84569441 C147.60164993 95.82698132 134.17819948 95.81588029 120.7547273 95.81182301 C112.47392441 95.80908088 104.1931713 95.80042473 95.91238373 95.78416707 C90.23141663 95.77358281 84.55047521 95.77040264 78.86949898 95.77299725 C75.59348913 95.77427629 72.3175843 95.77123773 69.04158592 95.76158905 C65.48448773 95.75162653 61.92760185 95.75403608 58.37049866 95.75949097 C57.34226724 95.75366528 56.31403583 95.7478396 55.25464588 95.74183738 C45.9564725 95.7803294 37.26986048 96.74601522 30 103 Z M334.25 103.25 C328.60271354 110.15223901 326.86639923 116.9484595 326.88647461 125.82177734 C326.88655014 126.94248627 326.88662567 128.06319519 326.88670349 129.21786499 C326.89186478 130.41182892 326.89702606 131.60579285 326.90234375 132.8359375 C326.9037587 134.07042633 326.90517365 135.30491516 326.90663147 136.57681274 C326.91221728 140.50956675 326.92476725 144.44226328 326.9375 148.375 C326.94308088 151.04557208 326.94707942 153.71614363 326.95117188 156.38671875 C326.96133005 162.92451898 326.98090842 169.46219535 327 176 C342.84 176 358.68 176 375 176 C375.04601999 168.18938563 375.08581426 160.37924564 375.10986328 152.56860352 C375.11875946 149.91390161 375.13352056 147.25941773 375.15087891 144.60473633 C375.1752576 140.77943201 375.18651312 136.95427434 375.1953125 133.12890625 C375.20563507 131.95042618 375.21595764 130.77194611 375.22659302 129.55775452 C375.22789812 119.87734765 374.62236779 110.59916704 368 103 C357.24962401 94.53827827 344.75856583 94.65208251 334.25 103.25 Z M0 106 C-7.45950294 115.49148224 -8.91722357 123.05025631 -8 135 C-6.41961142 141.69181679 -3.16252305 147.42053837 2 152 C3.65823959 153.01391283 5.32421403 154.01535836 7 155 C7.0093457 153.71947754 7.01869141 152.43895508 7.02832031 151.11962891 C7.06845203 146.32957266 7.13427398 141.54014311 7.20751953 136.75048828 C7.23559538 134.6848155 7.25687591 132.61903797 7.27099609 130.55322266 C7.29261193 127.56879557 7.33935624 124.58561046 7.390625 121.6015625 C7.39246796 120.23531235 7.39246796 120.23531235 7.39434814 118.84146118 C7.52652878 112.94146584 8.71382546 108.39245354 11.14642334 103.01010132 C12.13028759 101.05715485 12.13028759 101.05715485 12 99 C7.43736145 99 3.28691167 103.1448021 0 106 Z M-73 432 C-74.40150555 453.85941724 -74.40150555 453.85941724 -66 473 C-57.50713746 480.30608699 -47.11036968 480.29456262 -36.41465759 480.24050903 C-34.54714831 480.24307231 -34.54714831 480.24307231 -32.64191157 480.24568737 C-29.20748268 480.24840099 -25.7732844 480.24219276 -22.33888352 480.23213124 C-18.62735079 480.22346194 -14.91582468 480.22641936 -11.20428467 480.22793579 C-4.78086106 480.22898245 1.64252178 480.22272882 8.06593513 480.21146011 C17.35300769 480.19517828 26.64006061 480.18999436 35.92714589 480.18748413 C50.99628225 480.18311123 66.0653969 480.16981314 81.13452148 480.15087891 C95.76928601 480.13250961 110.40404463 480.11835824 125.03881836 480.10986328 C125.94151351 480.10933783 126.84420866 480.10881239 127.7742582 480.10827102 C132.30299605 480.10566087 136.83173393 480.10313347 141.36047184 480.10064721 C178.90699655 480.07992734 216.45349658 480.04471286 254 480 C253.65066406 479.25234375 253.30132812 478.5046875 252.94140625 477.734375 C252.48636719 476.74953125 252.03132813 475.7646875 251.5625 474.75 C251.11003906 473.77546875 250.65757812 472.8009375 250.19140625 471.796875 C244.79730654 459.13400486 247.43892862 446.48464455 247 432 C141.4 432 35.8 432 -73 432 Z " fill="#000000" transform="translate(113,8)"/>
<path d="M0 0 C84.48 0 168.96 0 256 0 C256 63.36 256 126.72 256 192 C171.52 192 87.04 192 0 192 C0 128.64 0 65.28 0 0 Z " fill="#EFBB5D" transform="translate(248,216)"/>
<path d="M0 0 C84.48 0 168.96 0 256 0 C256 26.4 256 52.8 256 80 C197.92 80 139.84 80 80 80 C80 111.68 80 143.36 80 176 C53.6 176 27.2 176 0 176 C0 117.92 0 59.84 0 0 Z " fill="#000000" transform="translate(152,120)"/>
<path d="M0 0 C15.18 0 30.36 0 46 0 C47.98 5.94 49.96 11.88 52 18 C55.97568783 20.42958701 57.71406246 21.05137916 62 22 C64.48552658 23.00387359 66.92914495 24.03469444 69.375 25.125 C70.53773438 25.62257813 71.70046875 26.12015625 72.8984375 26.6328125 C76 28 76 28 77.9140625 29.42578125 C81.66404249 30.45807911 84.76907087 27.8916039 88 26.0625 C89.41058297 25.27160248 90.82710335 24.49117972 92.25 23.72265625 C93.18585938 23.19297241 93.18585938 23.19297241 94.140625 22.65258789 C96.53754637 21.81133647 97.61336952 22.1859521 100 23 C101.58869934 24.18756104 101.58869934 24.18756104 103.13208008 25.69628906 C103.71560745 26.26067688 104.29913483 26.8250647 104.90034485 27.40655518 C105.51717636 28.02004822 106.13400787 28.63354126 106.76953125 29.265625 C107.40992844 29.89603699 108.05032562 30.52644897 108.71012878 31.17596436 C110.05964138 32.51030231 111.40512058 33.84873015 112.74682617 35.19091797 C114.80685784 37.24437585 116.88966991 39.27265681 118.97460938 41.30078125 C120.28271601 42.60008822 121.58940646 43.90082285 122.89453125 45.203125 C123.52148392 45.80852112 124.14843658 46.41391724 124.79438782 47.03765869 C129.00198098 51.31365253 129.00198098 51.31365253 128.9921875 54.70678711 C127.27900051 58.66642426 125.25124362 62.47787291 123.08789062 66.20898438 C122.05511547 68.21088452 121.39417103 69.77788538 121 72 C121.72132362 74.17742672 121.72132362 74.17742672 122.9309082 76.24291992 C123.31213333 76.95034836 123.69335846 77.65777679 124.08613586 78.38664246 C124.38771103 78.91905045 124.68928619 79.45145844 125 80 C119.5741899 80.19856579 114.1505165 80.34329525 108.72192383 80.43945312 C106.8777989 80.47955334 105.03392626 80.53405166 103.19067383 80.60351562 C87.86136111 81.16651496 87.86136111 81.16651496 83.36108398 78.34619141 C81.60834948 76.31985123 80.31195377 74.32879407 79 72 C68.92411339 61.84600574 58.57727676 56.29718524 45 52 C44.06800781 51.67773438 43.13601562 51.35546875 42.17578125 51.0234375 C23.23567897 45.24143766 2.87367778 48.96822095 -14.39672852 57.78173828 C-19.36185318 60.45932143 -23.73739 63.60868842 -27.984375 67.3359375 C-30 69 -30 69 -32.140625 69.9765625 C-34.52973823 71.29157861 -34.8817374 72.54876839 -36 75 C-37.18543657 76.43588092 -38.39679254 77.85052855 -39.625 79.25 C-53.33325764 96.24823947 -58.0275227 116.60290639 -55.78466797 138.06005859 C-53.82923766 152.8909029 -47.95932949 166.10116555 -39 178 C-38.45730469 178.72703125 -37.91460937 179.4540625 -37.35546875 180.203125 C-30.53331914 188.63536832 -21.49971086 194.49760011 -11.9375 199.375 C-11.31367432 199.69662109 -10.68984863 200.01824219 -10.04711914 200.34960938 C-4.36888994 203.11812108 0.63908402 204.26520473 7 206 C7 221.18 7 236.36 7 252 C3.71436702 248.71436702 2.40043557 246.96584423 0.3125 243.125 C-4.01422722 236.7791334 -9.62248709 235.47549478 -16.66015625 233.4140625 C-20.70109176 232.21015456 -23.95315259 230.31494113 -27.5625 228.125 C-30.62441454 226.60564089 -32.66816284 225.64638961 -36.046875 226.54345703 C-39.76814759 228.08199577 -43.14592697 230.02526938 -46.56640625 232.13671875 C-50 234 -50 234 -52.0188446 233.78497314 C-54.22561113 232.91060838 -55.43899301 231.95878402 -57.13208008 230.30371094 C-57.71560745 229.73932312 -58.29913483 229.1749353 -58.90034485 228.59344482 C-59.51717636 227.97995178 -60.13400787 227.36645874 -60.76953125 226.734375 C-61.73012703 225.78875702 -61.73012703 225.78875702 -62.71012878 224.82403564 C-64.05964138 223.48969769 -65.40512058 222.15126985 -66.74682617 220.80908203 C-68.80685784 218.75562415 -70.88966991 216.72734319 -72.97460938 214.69921875 C-74.28271601 213.39991178 -75.58940646 212.09917715 -76.89453125 210.796875 C-77.83496025 209.88878082 -77.83496025 209.88878082 -78.79438782 208.96234131 C-83.00030879 204.68804684 -83.00030879 204.68804684 -82.9987793 201.2800293 C-81.8747025 198.71396888 -80.49480521 196.34541879 -79.06567383 193.9387207 C-76.35077353 189.15887905 -74.52640948 185.81704119 -75.95703125 180.328125 C-77.23249528 177.91145631 -78.50979462 175.66401824 -79.96875 173.37109375 C-82.00541826 169.99100778 -82.88907702 167.18411978 -83.8125 163.375 C-85.08071825 159.28513399 -85.08071825 159.28513399 -88.1484375 156.47265625 C-90.75340514 155.41063098 -93.2736822 154.69522924 -96 154 C-98.97 153.01 -101.94 152.02 -105 151 C-105 135.82 -105 120.64 -105 105 C-99.06 103.02 -93.12 101.04 -87 99 C-84.57041299 95.02431217 -83.94862084 93.28593754 -83 89 C-81.99612641 86.51447342 -80.96530556 84.07085505 -79.875 81.625 C-79.12863281 79.88089844 -79.12863281 79.88089844 -78.3671875 78.1015625 C-77 75 -77 75 -75.57421875 73.0859375 C-74.54192089 69.33595751 -77.1083961 66.23092913 -78.9375 63 C-79.72839752 61.58941703 -80.50882028 60.17289665 -81.27734375 58.75 C-81.63046631 58.12609375 -81.98358887 57.5021875 -82.34741211 56.859375 C-83.18866353 54.46245363 -82.8140479 53.38663048 -82 51 C-80.81243896 49.41130066 -80.81243896 49.41130066 -79.30371094 47.86791992 C-78.73932312 47.28439255 -78.1749353 46.70086517 -77.59344482 46.09965515 C-76.97995178 45.48282364 -76.36645874 44.86599213 -75.734375 44.23046875 C-75.10396301 43.59007156 -74.47355103 42.94967438 -73.82403564 42.28987122 C-72.48969769 40.94035862 -71.15126985 39.59487942 -69.80908203 38.25317383 C-67.75562415 36.19314216 -65.72734319 34.11033009 -63.69921875 32.02539062 C-62.39991178 30.71728399 -61.09917715 29.41059354 -59.796875 28.10546875 C-59.19147888 27.47851608 -58.58608276 26.85156342 -57.96234131 26.20561218 C-53.68804684 21.99969121 -53.68804684 21.99969121 -50.2800293 22.0012207 C-47.71396888 23.1252975 -45.34541879 24.50519479 -42.9387207 25.93432617 C-38.15887905 28.64922647 -34.81704119 30.47359052 -29.328125 29.04296875 C-26.91145631 27.76750472 -24.66401824 26.49020538 -22.37109375 25.03125 C-18.99100778 22.99458174 -16.18411978 22.11092298 -12.375 21.1875 C-8.28513399 19.91928175 -8.28513399 19.91928175 -5.47265625 16.8515625 C-4.41063098 14.24659486 -3.69522924 11.7263178 -3 9 C-2.01 6.03 -1.02 3.06 0 0 Z " fill="#EFBB5D" transform="translate(113,8)"/>
<path d="M0 0 C84.48 0 168.96 0 256 0 C256 15.84 256 31.68 256 48 C171.52 48 87.04 48 0 48 C0 32.16 0 16.32 0 0 Z " fill="#F0BC5E" transform="translate(152,120)"/>
<path d="M0 0 C84.48 0 168.96 0 256 0 C256 10.56 256 21.12 256 32 C171.52 32 87.04 32 0 32 C0 21.44 0 10.88 0 0 Z " fill="#F0BC5E" transform="translate(248,216)"/>
<path d="M0 0 C84.48 0 168.96 0 256 0 C256 10.56 256 21.12 256 32 C203.2 32 150.4 32 96 32 C96 26.72 96 21.44 96 16 C64.32 16 32.64 16 0 16 C0 10.72 0 5.44 0 0 Z " fill="#F0BC5E" transform="translate(152,168)"/>
<path d="M0 0 C84.48 0 168.96 0 256 0 C256 5.28 256 10.56 256 16 C171.52 16 87.04 16 0 16 C0 10.72 0 5.44 0 0 Z " fill="#000000" transform="translate(248,248)"/>
<path d="M0 0 C84.48 0 168.96 0 256 0 C256 5.28 256 10.56 256 16 C171.52 16 87.04 16 0 16 C0 10.72 0 5.44 0 0 Z " fill="#000000" transform="translate(152,152)"/>
<path d="M0 0 C73.92 0 147.84 0 224 0 C224 5.28 224 10.56 224 16 C150.08 16 76.16 16 0 16 C0 10.72 0 5.44 0 0 Z " fill="#000000" transform="translate(184,120)"/>
<path d="M0 0 C0.58265625 0.47953125 1.1653125 0.9590625 1.765625 1.453125 C1.765625 1.783125 1.765625 2.113125 1.765625 2.453125 C1.0449585 2.47818115 0.32429199 2.5032373 -0.41821289 2.52905273 C-3.71124964 2.64572576 -7.00405001 2.76812679 -10.296875 2.890625 C-11.43060547 2.92994141 -12.56433594 2.96925781 -13.73242188 3.00976562 C-20.56981577 3.24621234 -20.56981577 3.24621234 -27.35546875 4.05078125 C-30.234375 4.453125 -30.234375 4.453125 -33.234375 3.453125 C-47.85266302 2.251352 -60.75312166 5.76613275 -72.1953125 15.04296875 C-82.26519495 24.38729198 -87.27579945 37.31449437 -87.796875 50.890625 C-87.39609679 63.8491204 -82.21068203 75.03246721 -73.39453125 84.41015625 C-68.27787063 89.21291131 -62.45465699 92.26523048 -56.234375 95.453125 C-56.234375 101.063125 -56.234375 106.673125 -56.234375 112.453125 C-72.62794684 108.53824217 -86.23171084 98.13456014 -95.17480469 83.98046875 C-104.20673742 68.81009123 -106.84862633 51.3670027 -102.734375 34.203125 C-98.68021135 18.9547976 -88.75001875 4.74271983 -75.234375 -3.546875 C-50.43008593 -17.79092219 -23.41372538 -16.93445546 0 0 Z " fill="#ECB85C" transform="translate(176.234375,85.546875)"/>
<path d="M0 0 C47.52 0 95.04 0 144 0 C144 5.28 144 10.56 144 16 C96.48 16 48.96 16 0 16 C0 10.72 0 5.44 0 0 Z " fill="#000000" transform="translate(264,184)"/>
<path d="M0 0 C1.72945653 0.14235457 3.45855654 0.28904382 5.1875 0.4375 C6.63189453 0.55931641 6.63189453 0.55931641 8.10546875 0.68359375 C10.78814012 0.97684123 13.35980785 1.45328372 16 2 C14.38103186 12.83169691 12.56981034 23.62776574 10.7421875 34.42578125 C10.43108002 36.26806774 10.1200565 38.1103684 9.80911255 39.9526825 C8.99784337 44.75802492 8.18544783 49.56317623 7.37280273 54.36828613 C6.54081213 59.28902704 5.7099074 64.20995129 4.87890625 69.13085938 C3.25365581 78.75408412 1.62721319 88.37710696 0 98 C-1.72945653 97.85764543 -3.45855654 97.71095618 -5.1875 97.5625 C-6.63189453 97.44068359 -6.63189453 97.44068359 -8.10546875 97.31640625 C-10.78649602 97.02333849 -13.3662986 96.57296246 -16 96 C-13.61488006 78.21065027 -10.6641467 60.51897125 -7.70166016 42.81884766 C-7.00455121 38.65353908 -6.31192709 34.48749841 -5.62051201 30.32124138 C-5.08353047 27.08853983 -4.54424406 23.85622612 -4.00424576 20.62402725 C-3.74756653 19.08594782 -3.49160527 17.54774838 -3.23638535 16.00942612 C-2.88243362 13.8781163 -2.52537938 11.74734925 -2.16748047 9.61669922 C-1.96557098 8.40762909 -1.7636615 7.19855896 -1.55563354 5.95285034 C-1 3 -1 3 0 0 Z " fill="#030201" transform="translate(376,279)"/>
<path d="M0 0 C3.14945072 1.20615218 5.21980723 2.97517892 7.57519531 5.34814453 C8.25559875 6.02869904 8.9360022 6.70925354 9.63702393 7.41043091 C10.36008728 8.14381683 11.08315063 8.87720276 11.828125 9.6328125 C12.57713074 10.38464813 13.32613647 11.13648376 14.09783936 11.91110229 C16.4866302 14.31107901 18.86836897 16.71792009 21.25 19.125 C22.86933169 20.75436352 24.48911802 22.38327534 26.109375 24.01171875 C30.07820505 28.00258806 34.04126899 31.99911415 38 36 C36.629199 39.06268033 35.06190578 41.20199357 32.71533203 43.59106445 C31.71386642 44.61651115 31.71386642 44.61651115 30.69216919 45.66267395 C29.97133148 46.38887436 29.25049377 47.11507477 28.5078125 47.86328125 C27.39428909 48.99034737 27.39428909 48.99034737 26.25827026 50.1401825 C24.68908243 51.72386227 23.11708096 53.30475839 21.54248047 54.88305664 C19.12872472 57.30875685 16.73424557 59.75247863 14.33984375 62.19726562 C12.81365164 63.73291624 11.28634524 65.2674604 9.7578125 66.80078125 C9.04102325 67.53710281 8.32423401 68.27342438 7.58572388 69.03205872 C6.91177582 69.69992905 6.23782776 70.36779938 5.54345703 71.0559082 C4.65981979 71.94715141 4.65981979 71.94715141 3.7583313 72.85639954 C2 74 2 74 -0.08547974 73.79069519 C-2.69638622 72.7123931 -4.30548554 71.16516141 -6.3125 69.1875 C-7.03050781 68.50042969 -7.74851562 67.81335938 -8.48828125 67.10546875 C-10 65 -10 65 -9.91503906 63.20727539 C-8.5934779 60.01937933 -6.30756926 57.93883562 -3.87109375 55.578125 C-3.36199966 55.07327576 -2.85290558 54.56842651 -2.3283844 54.04827881 C-0.7050088 52.44166021 0.928497 50.84580178 2.5625 49.25 C3.6667005 48.16085016 4.77022445 47.07101395 5.87304688 45.98046875 C8.5742529 43.3122924 11.28459063 40.65371709 14 38 C12.42563091 34.12946551 9.95657765 31.79877598 6.95703125 28.9375 C5.95596502 27.96657373 4.95532646 26.99520634 3.95507812 26.0234375 C2.37974509 24.50405824 0.80084107 22.98892339 -0.78588867 21.48144531 C-2.32018204 20.01949071 -3.83855478 18.54244987 -5.35546875 17.0625 C-6.26965576 16.18722656 -7.18384277 15.31195313 -8.12573242 14.41015625 C-10 12 -10 12 -9.88769531 9.80151367 C-8.76606792 7.5252517 -7.39298776 6.066876 -5.5625 4.3125 C-4.94503906 3.71050781 -4.32757813 3.10851562 -3.69140625 2.48828125 C-2 1 -2 1 0 0 Z " fill="#060402" transform="translate(405,291)"/>
<path d="M0 0 C3.41059403 1.60535287 5.61792484 3.40518901 8.25 6.125 C8.95640625 6.84945313 9.6628125 7.57390625 10.390625 8.3203125 C10.92171875 8.87460937 11.4528125 9.42890625 12 10 C10.4152642 13.86328627 7.94043113 16.28876923 4.9921875 19.203125 C4.50670441 19.6857782 4.02122131 20.1684314 3.52102661 20.66571045 C1.97700134 22.19858562 0.42615176 23.72434004 -1.125 25.25 C-2.17624009 26.29120361 -3.22702657 27.33286541 -4.27734375 28.375 C-6.84633004 30.92199464 -9.42148161 33.46265177 -12 36 C-10.42563091 39.87053449 -7.95657765 42.20122402 -4.95703125 45.0625 C-3.95596502 46.03342627 -2.95532646 47.00479366 -1.95507812 47.9765625 C-0.37974509 49.49594176 1.19915893 51.01107661 2.78588867 52.51855469 C4.32018204 53.98050929 5.83855478 55.45755013 7.35546875 56.9375 C8.26965576 57.81277344 9.18384277 58.68804687 10.12573242 59.58984375 C12 62 12 62 11.89697266 64.18041992 C10.6787219 66.65173807 9.1195988 68.35172441 7.1875 70.3125 C6.50042969 71.03050781 5.81335938 71.74851562 5.10546875 72.48828125 C3 74 3 74 1.09759521 73.80238342 C-1.44591655 72.8294256 -2.75333261 71.60804421 -4.66699219 69.67358398 C-5.36741638 68.9729332 -6.06784058 68.27228241 -6.78948975 67.55039978 C-7.90689545 66.4097683 -7.90689545 66.4097683 -9.046875 65.24609375 C-9.81807678 64.47064713 -10.58927856 63.6952005 -11.3838501 62.89625549 C-13.8463571 60.41695059 -16.29823134 57.92742008 -18.75 55.4375 C-20.41727909 53.7551756 -22.08523969 52.07352633 -23.75390625 50.39257812 C-27.84387902 46.26952125 -31.92516921 42.13801942 -36 38 C-34.6238464 34.90820864 -33.04841555 32.80361247 -30.65185547 30.42480469 C-29.97130096 29.74440125 -29.29074646 29.0639978 -28.58956909 28.36297607 C-27.85618317 27.63991272 -27.12279724 26.91684937 -26.3671875 26.171875 C-25.61535187 25.42286926 -24.86351624 24.67386353 -24.08889771 23.90216064 C-21.68892099 21.5133698 -19.28207991 19.13163103 -16.875 16.75 C-15.24563648 15.13066831 -13.61672466 13.51088198 -11.98828125 11.890625 C-7.99741194 7.92179495 -4.00088585 3.95873101 0 0 Z " fill="#050402" transform="translate(345,291)"/>
<path d="M0 0 C26.4 0 52.8 0 80 0 C80 5.28 80 10.56 80 16 C53.6 16 27.2 16 0 16 C0 10.72 0 5.44 0 0 Z " fill="#000000" transform="translate(152,280)"/>
<path d="M0 0 C26.4 0 52.8 0 80 0 C80 5.28 80 10.56 80 16 C53.6 16 27.2 16 0 16 C0 10.72 0 5.44 0 0 Z " fill="#F0BC5E" transform="translate(152,264)"/>
<path d="M0 0 C26.4 0 52.8 0 80 0 C80 5.28 80 10.56 80 16 C53.6 16 27.2 16 0 16 C0 10.72 0 5.44 0 0 Z " fill="#000000" transform="translate(152,248)"/>
<path d="M0 0 C26.4 0 52.8 0 80 0 C80 5.28 80 10.56 80 16 C53.6 16 27.2 16 0 16 C0 10.72 0 5.44 0 0 Z " fill="#F0BC5E" transform="translate(152,232)"/>
<path d="M0 0 C26.4 0 52.8 0 80 0 C80 5.28 80 10.56 80 16 C53.6 16 27.2 16 0 16 C0 10.72 0 5.44 0 0 Z " fill="#000000" transform="translate(152,216)"/>
<path d="M0 0 C26.4 0 52.8 0 80 0 C80 5.28 80 10.56 80 16 C53.6 16 27.2 16 0 16 C0 10.72 0 5.44 0 0 Z " fill="#F0BC5E" transform="translate(152,200)"/>
<path d="M0 0 C5.28 0 10.56 0 16 0 C16 5.28 16 10.56 16 16 C10.72 16 5.44 16 0 16 C0 10.72 0 5.44 0 0 Z " fill="#000000" transform="translate(152,120)"/>
</svg>
